<?xml version="1.0" encoding="utf-8"?>
<!-- Generator: Adobe Illustrator 23.0.1, SVG Export Plug-In . SVG Version: 6.00 Build 0)  -->
<svg version="1.1" id="Layer_1" xmlns="http://www.w3.org/2000/svg" xmlns:xlink="http://www.w3.org/1999/xlink" x="0px" y="0px"
	 viewBox="0 0 595.3 841.9" style="enable-background:new 0 0 595.3 841.9;" xml:space="preserve">
<style type="text/css">
	.st0{fill:#282A74;}
	.st1{fill:#010101;}
	.st2{fill:#EEC51A;}
</style>
<title>Asset 3</title>
<g>
	<g id="Layer_1-2">
		<path class="st0" d="M353.4,620.5c-1.6,0-3.3-0.1-4.9-0.2L65.3,600.5c-38.4-2.7-67.4-36-64.7-74.4c0,0,0,0,0,0L32.8,65.2
			c2.5-36.4,33-64.9,69.5-64.9c1.6,0,3.3,0.1,4.9,0.2l283.2,19.8c38.4,2.7,67.4,36,64.7,74.4l-32.2,460.9
			C420.4,592,389.8,620.5,353.4,620.5z"/>
		<path class="st1" d="M102.3,0v0.7c1.6,0,3.3,0.1,4.9,0.2l283.2,19.8c38.2,2.7,67,35.8,64.4,74c0,0,0,0,0,0l-32.2,460.9
			c-2.5,36.3-32.7,64.5-69.1,64.5c-1.6,0-3.3-0.1-4.9-0.2L65.3,600.2c-38.2-2.7-67-35.8-64.4-74c0,0,0,0,0,0L33.1,65.3
			c2.5-36.3,32.7-64.5,69.2-64.5V0 M102.3,0C65.5,0,35,28.5,32.4,65.2L0.2,526.1c-2.7,38.6,26.4,72.1,65,74.8c0,0,0,0,0,0
			l283.2,19.8c1.7,0.1,3.3,0.2,5,0.2c36.8,0,67.3-28.5,69.9-65.2l32.2-460.9c2.7-38.6-26.4-72.1-65-74.8c0,0,0,0,0,0L107.2,0.2
			C105.6,0.1,103.9,0,102.3,0z"/>
		<path class="st2" d="M40.9,747.1l32.2-460.9c2.7-38.6,36.2-67.7,74.8-65L431.2,241c38.6,2.7,67.7,36.2,65,74.8L464,776.7
			c-2.7,38.6-36.2,67.7-74.8,65L106,821.9C67.4,819.2,38.2,785.7,40.9,747.1z"/>
	</g>
</g>
<image style="overflow:visible;" width="720" height="1058" xlink:href="meRoundedWithBlur3.png"  transform="matrix(0.5613 3.925115e-02 -3.925115e-02 0.5613 149.6259 109.8797)">
</image>
</svg>
