<svg xmlns="http://www.w3.org/2000/svg" viewBox="0 0 694.1 1177.13"><defs><style>.cls-1{fill:navy;}.cls-2{fill:#efc501;}</style></defs><title>Asset 3</title><g id="Layer_2" data-name="Layer 2"><g id="Layer_1-2" data-name="Layer 1"><path class="cls-1" d="M494.14,867.63c-2.29,0-4.61-.08-6.9-.24l-396-27.7A97.49,97.49,0,0,1,.74,735.63L45.8,91.2C49.36,40.34,92,.5,143,.5c2.28,0,4.61.08,6.9.24l396,27.69A97.51,97.51,0,0,1,636.36,132.5L591.3,776.92C587.74,827.79,545.06,867.63,494.14,867.63Z"/><path d="M143,0V1c2.27,0,4.58.08,6.86.24l396,27.69a97,97,0,0,1,90,103.53L590.8,776.89a97,97,0,0,1-96.66,90.24c-2.28,0-4.59-.08-6.87-.24l-396-27.7a97,97,0,0,1-90-103.53L46.3,91.24A97,97,0,0,1,143,1V0m0,0A98,98,0,0,0,45.31,91.17L.24,735.59a98,98,0,0,0,90.93,104.6l396,27.7q3.49.24,6.94.24A98,98,0,0,0,591.8,777l45.06-644.43A98,98,0,0,0,545.94,27.94L149.9.24C147.58.08,145.26,0,143,0Z"/><rect class="cls-2" x="-45.45" y="446.56" width="842" height="593" rx="98" transform="translate(-391.9 1065.87) rotate(-86)"/></g></g></svg>